<?xml version="1.0" encoding="UTF-8"?>
<!DOCTYPE X3D PUBLIC "ISO//Web3D//DTD X3D 3.3//EN"
  "http://www.web3d.org/specifications/x3d-3.3.dtd">
<X3D version="3.3" profile="Immersive">
  <Scene>
    <Background skyColor="0.00 0.00 0.05"/>
      <PointLight location="-16.8000 -14.0000 14.0000" intensity="0.1200" radius="100.0000" ambientIntensity="0.12" color="1.0 0.97 0.88" on="true"/>
      <Viewpoint DEF="Front" description="Front" position="0.0000 -14.0000 4.2000" orientation="-0.9578 0.0000 0.0000 1.2793" fieldOfView="0.7850"/>
      <Viewpoint DEF="Top" description="Top" position="0.0000 0.0000 21.0000" orientation="0.0000 0.0000 0.0000 0.0000" fieldOfView="0.7850"/>
      <Viewpoint DEF="Side" description="Side" position="14.0000 0.0000 4.2000" orientation="0.0000 -0.9578 0.0000 1.2793" fieldOfView="0.7850"/>

  <!-- Saturn -->
  <Transform translation="0.0000 0.0000 0.0000">
    <Shape>
      <Appearance>
        <Material DEF="SaturnMat"
          diffuseColor="0.9000 0.8200 0.6000"
          emissiveColor="0 0 0"
          specularColor="0.15 0.15 0.15"
          shininess="0.25"
          transparency="0"/>
      </Appearance>
      <Sphere radius="2.4000"/>
    </Shape>
  </Transform>

  <!-- Saturn Rings -->
  <Transform translation="0.0000 0.0000 0.0000">
    <Shape>
      <Appearance>
        <Material diffuseColor="0.8500 0.8000 0.6500"
          emissiveColor="0.05 0.05 0.03"
          shininess="0.1"
          transparency="0.2500"/>
      </Appearance>
      <IndexedFaceSet solid="false" coordIndex="0 1 81 80 -1 1 2 82 81 -1 2 3 83 82 -1 3 4 84 83 -1 4 5 85 84 -1 5 6 86 85 -1 6 7 87 86 -1 7 8 88 87 -1 8 9 89 88 -1 9 10 90 89 -1 10 11 91 90 -1 11 12 92 91 -1 12 13 93 92 -1 13 14 94 93 -1 14 15 95 94 -1 15 16 96 95 -1 16 17 97 96 -1 17 18 98 97 -1 18 19 99 98 -1 19 20 100 99 -1 20 21 101 100 -1 21 22 102 101 -1 22 23 103 102 -1 23 24 104 103 -1 24 25 105 104 -1 25 26 106 105 -1 26 27 107 106 -1 27 28 108 107 -1 28 29 109 108 -1 29 30 110 109 -1 30 31 111 110 -1 31 32 112 111 -1 32 33 113 112 -1 33 34 114 113 -1 34 35 115 114 -1 35 36 116 115 -1 36 37 117 116 -1 37 38 118 117 -1 38 39 119 118 -1 39 40 120 119 -1 40 41 121 120 -1 41 42 122 121 -1 42 43 123 122 -1 43 44 124 123 -1 44 45 125 124 -1 45 46 126 125 -1 46 47 127 126 -1 47 48 128 127 -1 48 49 129 128 -1 49 50 130 129 -1 50 51 131 130 -1 51 52 132 131 -1 52 53 133 132 -1 53 54 134 133 -1 54 55 135 134 -1 55 56 136 135 -1 56 57 137 136 -1 57 58 138 137 -1 58 59 139 138 -1 59 60 140 139 -1 60 61 141 140 -1 61 62 142 141 -1 62 63 143 142 -1 63 64 144 143 -1 64 65 145 144 -1 65 66 146 145 -1 66 67 147 146 -1 67 68 148 147 -1 68 69 149 148 -1 69 70 150 149 -1 70 71 151 150 -1 71 72 152 151 -1 72 73 153 152 -1 73 74 154 153 -1 74 75 155 154 -1 75 76 156 155 -1 76 77 157 156 -1 77 78 158 157 -1 78 79 159 158 -1 79 0 80 159 -1">
        <Coordinate point="3.2000 0.0000 0.0000 3.1901 0.2511 0.0000 3.1606 0.5006 0.0000 3.1116 0.7470 0.0000 3.0434 0.9889 0.0000 2.9564 1.2246 0.0000 2.8512 1.4528 0.0000 2.7284 1.6720 0.0000 2.5889 1.8809 0.0000 2.4333 2.0782 0.0000 2.2627 2.2627 0.0000 2.0782 2.4333 0.0000 1.8809 2.5889 0.0000 1.6720 2.7284 0.0000 1.4528 2.8512 0.0000 1.2246 2.9564 0.0000 0.9889 3.0434 0.0000 0.7470 3.1116 0.0000 0.5006 3.1606 0.0000 0.2511 3.1901 0.0000 0.0000 3.2000 0.0000 -0.2511 3.1901 0.0000 -0.5006 3.1606 0.0000 -0.7470 3.1116 0.0000 -0.9889 3.0434 0.0000 -1.2246 2.9564 0.0000 -1.4528 2.8512 0.0000 -1.6720 2.7284 0.0000 -1.8809 2.5889 0.0000 -2.0782 2.4333 0.0000 -2.2627 2.2627 0.0000 -2.4333 2.0782 0.0000 -2.5889 1.8809 0.0000 -2.7284 1.6720 0.0000 -2.8512 1.4528 0.0000 -2.9564 1.2246 0.0000 -3.0434 0.9889 0.0000 -3.1116 0.7470 0.0000 -3.1606 0.5006 0.0000 -3.1901 0.2511 0.0000 -3.2000 0.0000 0.0000 -3.1901 -0.2511 0.0000 -3.1606 -0.5006 0.0000 -3.1116 -0.7470 0.0000 -3.0434 -0.9889 0.0000 -2.9564 -1.2246 0.0000 -2.8512 -1.4528 0.0000 -2.7284 -1.6720 0.0000 -2.5889 -1.8809 0.0000 -2.4333 -2.0782 0.0000 -2.2627 -2.2627 0.0000 -2.0782 -2.4333 0.0000 -1.8809 -2.5889 0.0000 -1.6720 -2.7284 0.0000 -1.4528 -2.8512 0.0000 -1.2246 -2.9564 0.0000 -0.9889 -3.0434 0.0000 -0.7470 -3.1116 0.0000 -0.5006 -3.1606 0.0000 -0.2511 -3.1901 0.0000 -0.0000 -3.2000 0.0000 0.2511 -3.1901 0.0000 0.5006 -3.1606 0.0000 0.7470 -3.1116 0.0000 0.9889 -3.0434 0.0000 1.2246 -2.9564 0.0000 1.4528 -2.8512 0.0000 1.6720 -2.7284 0.0000 1.8809 -2.5889 0.0000 2.0782 -2.4333 0.0000 2.2627 -2.2627 0.0000 2.4333 -2.0782 0.0000 2.5889 -1.8809 0.0000 2.7284 -1.6720 0.0000 2.8512 -1.4528 0.0000 2.9564 -1.2246 0.0000 3.0434 -0.9889 0.0000 3.1116 -0.7470 0.0000 3.1606 -0.5006 0.0000 3.1901 -0.2511 0.0000 5.5000 0.0000 0.0000 5.4830 0.4315 0.0000 5.4323 0.8604 0.0000 5.3480 1.2839 0.0000 5.2308 1.6996 0.0000 5.0813 2.1048 0.0000 4.9005 2.4969 0.0000 4.6895 2.8737 0.0000 4.4496 3.2328 0.0000 4.1822 3.5720 0.0000 3.8891 3.8891 0.0000 3.5720 4.1822 0.0000 3.2328 4.4496 0.0000 2.8737 4.6895 0.0000 2.4969 4.9005 0.0000 2.1048 5.0813 0.0000 1.6996 5.2308 0.0000 1.2839 5.3480 0.0000 0.8604 5.4323 0.0000 0.4315 5.4830 0.0000 0.0000 5.5000 0.0000 -0.4315 5.4830 0.0000 -0.8604 5.4323 0.0000 -1.2839 5.3480 0.0000 -1.6996 5.2308 0.0000 -2.1048 5.0813 0.0000 -2.4969 4.9005 0.0000 -2.8737 4.6895 0.0000 -3.2328 4.4496 0.0000 -3.5720 4.1822 0.0000 -3.8891 3.8891 0.0000 -4.1822 3.5720 0.0000 -4.4496 3.2328 0.0000 -4.6895 2.8737 0.0000 -4.9005 2.4969 0.0000 -5.0813 2.1048 0.0000 -5.2308 1.6996 0.0000 -5.3480 1.2839 0.0000 -5.4323 0.8604 0.0000 -5.4830 0.4315 0.0000 -5.5000 0.0000 0.0000 -5.4830 -0.4315 0.0000 -5.4323 -0.8604 0.0000 -5.3480 -1.2839 0.0000 -5.2308 -1.6996 0.0000 -5.0813 -2.1048 0.0000 -4.9005 -2.4969 0.0000 -4.6895 -2.8737 0.0000 -4.4496 -3.2328 0.0000 -4.1822 -3.5720 0.0000 -3.8891 -3.8891 0.0000 -3.5720 -4.1822 0.0000 -3.2328 -4.4496 0.0000 -2.8737 -4.6895 0.0000 -2.4969 -4.9005 0.0000 -2.1048 -5.0813 0.0000 -1.6996 -5.2308 0.0000 -1.2839 -5.3480 0.0000 -0.8604 -5.4323 0.0000 -0.4315 -5.4830 0.0000 -0.0000 -5.5000 0.0000 0.4315 -5.4830 0.0000 0.8604 -5.4323 0.0000 1.2839 -5.3480 0.0000 1.6996 -5.2308 0.0000 2.1048 -5.0813 0.0000 2.4969 -4.9005 0.0000 2.8737 -4.6895 0.0000 3.2328 -4.4496 0.0000 3.5720 -4.1822 0.0000 3.8891 -3.8891 0.0000 4.1822 -3.5720 0.0000 4.4496 -3.2328 0.0000 4.6895 -2.8737 0.0000 4.9005 -2.4969 0.0000 5.0813 -2.1048 0.0000 5.2308 -1.6996 0.0000 5.3480 -1.2839 0.0000 5.4323 -0.8604 0.0000 5.4830 -0.4315 0.0000"/>
      </IndexedFaceSet>
    </Shape>
  </Transform>
  </Scene>
</X3D>