<?xml version="1.0" encoding="UTF-8"?>
<!DOCTYPE X3D PUBLIC "ISO//Web3D//DTD X3D 3.3//EN"
  "http://www.web3d.org/specifications/x3d-3.3.dtd">
<X3D version="3.3" profile="Immersive">
  <Scene>
    <Background skyColor="0.00 0.00 0.05"/>
      <PointLight location="0.0000 0.0000 0.0000" intensity="1.0000" radius="500.0000" ambientIntensity="0.12" color="1.0 0.97 0.88" on="true"/>
      <Viewpoint DEF="Overview_Top" description="Overview_Top" position="0.0000 0.0000 120.0000" orientation="0.0000 0.0000 0.0000 0.0000" fieldOfView="0.7850"/>
      <Viewpoint DEF="Overview_Angle" description="Overview_Angle" position="80.0000 -80.0000 50.0000" orientation="-0.6468 -0.6468 0.0000 1.1547" fieldOfView="0.7850"/>
      <Viewpoint DEF="Near_Sun" description="Near_Sun" position="14.0000 0.0000 6.0000" orientation="0.0000 -0.9191 0.0000 1.1659" fieldOfView="0.7850"/>
      <Viewpoint DEF="Inner_Planets" description="Inner_Planets" position="25.0000 -15.0000 15.0000" orientation="-0.6029 -0.5225 0.0000 0.9237" fieldOfView="0.7850"/>
      <Viewpoint DEF="Outer_Planets" description="Outer_Planets" position="50.0000 -40.0000 30.0000" orientation="-0.7527 -0.3387 0.0000 0.9709" fieldOfView="0.7850"/>

  <!-- Sun -->
  <Transform translation="0.0000 0.0000 0.0000">
    <Shape>
      <Appearance>
        <Material DEF="SunMat"
          diffuseColor="1.0000 0.8500 0.3000"
          emissiveColor="1.0000 0.8500 0.3000"
          specularColor="0.15 0.15 0.15"
          shininess="0.05"
          transparency="0"/>
      </Appearance>
      <Sphere radius="3.5000"/>
    </Shape>
  </Transform>

  <Shape>
    <Appearance>
      <Material emissiveColor="0.25 0.25 0.45"/>
    </Appearance>
    <IndexedLineSet coordIndex="0 1 2 3 4 5 6 7 8 9 10 11 12 13 14 15 16 17 18 19 20 21 22 23 24 25 26 27 28 29 30 31 32 33 34 35 36 37 38 39 40 41 42 43 44 45 46 47 48 49 50 51 52 53 54 55 56 57 58 59 60 61 62 63 64 65 66 67 68 69 70 71 72 73 74 75 76 77 78 79 80 81 82 83 84 85 86 87 88 89 90 91 92 93 94 95 96 97 98 99 100 101 102 103 104 105 106 107 108 109 110 111 112 113 114 115 116 117 118 119 120 -1">
      <Coordinate point="4.0000 0.0000 0 3.9945 0.2093 0 3.9781 0.4181 0 3.9508 0.6257 0 3.9126 0.8316 0 3.8637 1.0353 0 3.8042 1.2361 0 3.7343 1.4335 0 3.6542 1.6269 0 3.5640 1.8160 0 3.4641 2.0000 0 3.3547 2.1786 0 3.2361 2.3511 0 3.1086 2.5173 0 2.9726 2.6765 0 2.8284 2.8284 0 2.6765 2.9726 0 2.5173 3.1086 0 2.3511 3.2361 0 2.1786 3.3547 0 2.0000 3.4641 0 1.8160 3.5640 0 1.6269 3.6542 0 1.4335 3.7343 0 1.2361 3.8042 0 1.0353 3.8637 0 0.8316 3.9126 0 0.6257 3.9508 0 0.4181 3.9781 0 0.2093 3.9945 0 0.0000 4.0000 0 -0.2093 3.9945 0 -0.4181 3.9781 0 -0.6257 3.9508 0 -0.8316 3.9126 0 -1.0353 3.8637 0 -1.2361 3.8042 0 -1.4335 3.7343 0 -1.6269 3.6542 0 -1.8160 3.5640 0 -2.0000 3.4641 0 -2.1786 3.3547 0 -2.3511 3.2361 0 -2.5173 3.1086 0 -2.6765 2.9726 0 -2.8284 2.8284 0 -2.9726 2.6765 0 -3.1086 2.5173 0 -3.2361 2.3511 0 -3.3547 2.1786 0 -3.4641 2.0000 0 -3.5640 1.8160 0 -3.6542 1.6269 0 -3.7343 1.4335 0 -3.8042 1.2361 0 -3.8637 1.0353 0 -3.9126 0.8316 0 -3.9508 0.6257 0 -3.9781 0.4181 0 -3.9945 0.2093 0 -4.0000 0.0000 0 -3.9945 -0.2093 0 -3.9781 -0.4181 0 -3.9508 -0.6257 0 -3.9126 -0.8316 0 -3.8637 -1.0353 0 -3.8042 -1.2361 0 -3.7343 -1.4335 0 -3.6542 -1.6269 0 -3.5640 -1.8160 0 -3.4641 -2.0000 0 -3.3547 -2.1786 0 -3.2361 -2.3511 0 -3.1086 -2.5173 0 -2.9726 -2.6765 0 -2.8284 -2.8284 0 -2.6765 -2.9726 0 -2.5173 -3.1086 0 -2.3511 -3.2361 0 -2.1786 -3.3547 0 -2.0000 -3.4641 0 -1.8160 -3.5640 0 -1.6269 -3.6542 0 -1.4335 -3.7343 0 -1.2361 -3.8042 0 -1.0353 -3.8637 0 -0.8316 -3.9126 0 -0.6257 -3.9508 0 -0.4181 -3.9781 0 -0.2093 -3.9945 0 -0.0000 -4.0000 0 0.2093 -3.9945 0 0.4181 -3.9781 0 0.6257 -3.9508 0 0.8316 -3.9126 0 1.0353 -3.8637 0 1.2361 -3.8042 0 1.4335 -3.7343 0 1.6269 -3.6542 0 1.8160 -3.5640 0 2.0000 -3.4641 0 2.1786 -3.3547 0 2.3511 -3.2361 0 2.5173 -3.1086 0 2.6765 -2.9726 0 2.8284 -2.8284 0 2.9726 -2.6765 0 3.1086 -2.5173 0 3.2361 -2.3511 0 3.3547 -2.1786 0 3.4641 -2.0000 0 3.5640 -1.8160 0 3.6542 -1.6269 0 3.7343 -1.4335 0 3.8042 -1.2361 0 3.8637 -1.0353 0 3.9126 -0.8316 0 3.9508 -0.6257 0 3.9781 -0.4181 0 3.9945 -0.2093 0 4.0000 -0.0000 0"/>
    </IndexedLineSet>
  </Shape>

  <!-- Mercury -->
  <Transform translation="4.0000 0.0000 0.0000">
    <Shape>
      <Appearance>
        <Material DEF="MercuryMat"
          diffuseColor="0.5500 0.4700 0.4000"
          emissiveColor="0 0 0"
          specularColor="0.15 0.15 0.15"
          shininess="0.25"
          transparency="0"/>
      </Appearance>
      <Sphere radius="0.3800"/>
    </Shape>
  </Transform>

  <Shape>
    <Appearance>
      <Material emissiveColor="0.25 0.25 0.45"/>
    </Appearance>
    <IndexedLineSet coordIndex="0 1 2 3 4 5 6 7 8 9 10 11 12 13 14 15 16 17 18 19 20 21 22 23 24 25 26 27 28 29 30 31 32 33 34 35 36 37 38 39 40 41 42 43 44 45 46 47 48 49 50 51 52 53 54 55 56 57 58 59 60 61 62 63 64 65 66 67 68 69 70 71 72 73 74 75 76 77 78 79 80 81 82 83 84 85 86 87 88 89 90 91 92 93 94 95 96 97 98 99 100 101 102 103 104 105 106 107 108 109 110 111 112 113 114 115 116 117 118 119 120 -1">
      <Coordinate point="7.5000 0.0000 0 7.4897 0.3925 0 7.4589 0.7840 0 7.4077 1.1733 0 7.3361 1.5593 0 7.2444 1.9411 0 7.1329 2.3176 0 7.0019 2.6878 0 6.8516 3.0505 0 6.6825 3.4049 0 6.4952 3.7500 0 6.2900 4.0848 0 6.0676 4.4084 0 5.8286 4.7199 0 5.5736 5.0185 0 5.3033 5.3033 0 5.0185 5.5736 0 4.7199 5.8286 0 4.4084 6.0676 0 4.0848 6.2900 0 3.7500 6.4952 0 3.4049 6.6825 0 3.0505 6.8516 0 2.6878 7.0019 0 2.3176 7.1329 0 1.9411 7.2444 0 1.5593 7.3361 0 1.1733 7.4077 0 0.7840 7.4589 0 0.3925 7.4897 0 0.0000 7.5000 0 -0.3925 7.4897 0 -0.7840 7.4589 0 -1.1733 7.4077 0 -1.5593 7.3361 0 -1.9411 7.2444 0 -2.3176 7.1329 0 -2.6878 7.0019 0 -3.0505 6.8516 0 -3.4049 6.6825 0 -3.7500 6.4952 0 -4.0848 6.2900 0 -4.4084 6.0676 0 -4.7199 5.8286 0 -5.0185 5.5736 0 -5.3033 5.3033 0 -5.5736 5.0185 0 -5.8286 4.7199 0 -6.0676 4.4084 0 -6.2900 4.0848 0 -6.4952 3.7500 0 -6.6825 3.4049 0 -6.8516 3.0505 0 -7.0019 2.6878 0 -7.1329 2.3176 0 -7.2444 1.9411 0 -7.3361 1.5593 0 -7.4077 1.1733 0 -7.4589 0.7840 0 -7.4897 0.3925 0 -7.5000 0.0000 0 -7.4897 -0.3925 0 -7.4589 -0.7840 0 -7.4077 -1.1733 0 -7.3361 -1.5593 0 -7.2444 -1.9411 0 -7.1329 -2.3176 0 -7.0019 -2.6878 0 -6.8516 -3.0505 0 -6.6825 -3.4049 0 -6.4952 -3.7500 0 -6.2900 -4.0848 0 -6.0676 -4.4084 0 -5.8286 -4.7199 0 -5.5736 -5.0185 0 -5.3033 -5.3033 0 -5.0185 -5.5736 0 -4.7199 -5.8286 0 -4.4084 -6.0676 0 -4.0848 -6.2900 0 -3.7500 -6.4952 0 -3.4049 -6.6825 0 -3.0505 -6.8516 0 -2.6878 -7.0019 0 -2.3176 -7.1329 0 -1.9411 -7.2444 0 -1.5593 -7.3361 0 -1.1733 -7.4077 0 -0.7840 -7.4589 0 -0.3925 -7.4897 0 -0.0000 -7.5000 0 0.3925 -7.4897 0 0.7840 -7.4589 0 1.1733 -7.4077 0 1.5593 -7.3361 0 1.9411 -7.2444 0 2.3176 -7.1329 0 2.6878 -7.0019 0 3.0505 -6.8516 0 3.4049 -6.6825 0 3.7500 -6.4952 0 4.0848 -6.2900 0 4.4084 -6.0676 0 4.7199 -5.8286 0 5.0185 -5.5736 0 5.3033 -5.3033 0 5.5736 -5.0185 0 5.8286 -4.7199 0 6.0676 -4.4084 0 6.2900 -4.0848 0 6.4952 -3.7500 0 6.6825 -3.4049 0 6.8516 -3.0505 0 7.0019 -2.6878 0 7.1329 -2.3176 0 7.2444 -1.9411 0 7.3361 -1.5593 0 7.4077 -1.1733 0 7.4589 -0.7840 0 7.4897 -0.3925 0 7.5000 -0.0000 0"/>
    </IndexedLineSet>
  </Shape>

  <!-- Venus -->
  <Transform translation="7.5000 0.0000 0.0000">
    <Shape>
      <Appearance>
        <Material DEF="VenusMat"
          diffuseColor="0.9000 0.7800 0.5000"
          emissiveColor="0 0 0"
          specularColor="0.15 0.15 0.15"
          shininess="0.25"
          transparency="0"/>
      </Appearance>
      <Sphere radius="0.9500"/>
    </Shape>
  </Transform>

  <Shape>
    <Appearance>
      <Material emissiveColor="0.25 0.25 0.45"/>
    </Appearance>
    <IndexedLineSet coordIndex="0 1 2 3 4 5 6 7 8 9 10 11 12 13 14 15 16 17 18 19 20 21 22 23 24 25 26 27 28 29 30 31 32 33 34 35 36 37 38 39 40 41 42 43 44 45 46 47 48 49 50 51 52 53 54 55 56 57 58 59 60 61 62 63 64 65 66 67 68 69 70 71 72 73 74 75 76 77 78 79 80 81 82 83 84 85 86 87 88 89 90 91 92 93 94 95 96 97 98 99 100 101 102 103 104 105 106 107 108 109 110 111 112 113 114 115 116 117 118 119 120 -1">
      <Coordinate point="11.0000 0.0000 0 10.9849 0.5757 0 10.9397 1.1498 0 10.8646 1.7208 0 10.7596 2.2870 0 10.6252 2.8470 0 10.4616 3.3992 0 10.2694 3.9420 0 10.0490 4.4741 0 9.8011 4.9939 0 9.5263 5.5000 0 9.2254 5.9910 0 8.8992 6.4656 0 8.5486 6.9225 0 8.1746 7.3604 0 7.7782 7.7782 0 7.3604 8.1746 0 6.9225 8.5486 0 6.4656 8.8992 0 5.9910 9.2254 0 5.5000 9.5263 0 4.9939 9.8011 0 4.4741 10.0490 0 3.9420 10.2694 0 3.3992 10.4616 0 2.8470 10.6252 0 2.2870 10.7596 0 1.7208 10.8646 0 1.1498 10.9397 0 0.5757 10.9849 0 0.0000 11.0000 0 -0.5757 10.9849 0 -1.1498 10.9397 0 -1.7208 10.8646 0 -2.2870 10.7596 0 -2.8470 10.6252 0 -3.3992 10.4616 0 -3.9420 10.2694 0 -4.4741 10.0490 0 -4.9939 9.8011 0 -5.5000 9.5263 0 -5.9910 9.2254 0 -6.4656 8.8992 0 -6.9225 8.5486 0 -7.3604 8.1746 0 -7.7782 7.7782 0 -8.1746 7.3604 0 -8.5486 6.9225 0 -8.8992 6.4656 0 -9.2254 5.9910 0 -9.5263 5.5000 0 -9.8011 4.9939 0 -10.0490 4.4741 0 -10.2694 3.9420 0 -10.4616 3.3992 0 -10.6252 2.8470 0 -10.7596 2.2870 0 -10.8646 1.7208 0 -10.9397 1.1498 0 -10.9849 0.5757 0 -11.0000 0.0000 0 -10.9849 -0.5757 0 -10.9397 -1.1498 0 -10.8646 -1.7208 0 -10.7596 -2.2870 0 -10.6252 -2.8470 0 -10.4616 -3.3992 0 -10.2694 -3.9420 0 -10.0490 -4.4741 0 -9.8011 -4.9939 0 -9.5263 -5.5000 0 -9.2254 -5.9910 0 -8.8992 -6.4656 0 -8.5486 -6.9225 0 -8.1746 -7.3604 0 -7.7782 -7.7782 0 -7.3604 -8.1746 0 -6.9225 -8.5486 0 -6.4656 -8.8992 0 -5.9910 -9.2254 0 -5.5000 -9.5263 0 -4.9939 -9.8011 0 -4.4741 -10.0490 0 -3.9420 -10.2694 0 -3.3992 -10.4616 0 -2.8470 -10.6252 0 -2.2870 -10.7596 0 -1.7208 -10.8646 0 -1.1498 -10.9397 0 -0.5757 -10.9849 0 -0.0000 -11.0000 0 0.5757 -10.9849 0 1.1498 -10.9397 0 1.7208 -10.8646 0 2.2870 -10.7596 0 2.8470 -10.6252 0 3.3992 -10.4616 0 3.9420 -10.2694 0 4.4741 -10.0490 0 4.9939 -9.8011 0 5.5000 -9.5263 0 5.9910 -9.2254 0 6.4656 -8.8992 0 6.9225 -8.5486 0 7.3604 -8.1746 0 7.7782 -7.7782 0 8.1746 -7.3604 0 8.5486 -6.9225 0 8.8992 -6.4656 0 9.2254 -5.9910 0 9.5263 -5.5000 0 9.8011 -4.9939 0 10.0490 -4.4741 0 10.2694 -3.9420 0 10.4616 -3.3992 0 10.6252 -2.8470 0 10.7596 -2.2870 0 10.8646 -1.7208 0 10.9397 -1.1498 0 10.9849 -0.5757 0 11.0000 -0.0000 0"/>
    </IndexedLineSet>
  </Shape>

  <!-- Earth -->
  <Transform translation="11.0000 0.0000 0.0000">
    <Shape>
      <Appearance>
        <Material DEF="EarthMat"
          diffuseColor="0.2000 0.4500 0.8000"
          emissiveColor="0 0 0"
          specularColor="0.15 0.15 0.15"
          shininess="0.25"
          transparency="0"/>
      </Appearance>
      <Sphere radius="1.0000"/>
    </Shape>
  </Transform>

  <Shape>
    <Appearance>
      <Material emissiveColor="0.25 0.25 0.45"/>
    </Appearance>
    <IndexedLineSet coordIndex="0 1 2 3 4 5 6 7 8 9 10 11 12 13 14 15 16 17 18 19 20 21 22 23 24 25 26 27 28 29 30 31 32 33 34 35 36 37 38 39 40 41 42 43 44 45 46 47 48 49 50 51 52 53 54 55 56 57 58 59 60 61 62 63 64 65 66 67 68 69 70 71 72 73 74 75 76 77 78 79 80 81 82 83 84 85 86 87 88 89 90 91 92 93 94 95 96 97 98 99 100 101 102 103 104 105 106 107 108 109 110 111 112 113 114 115 116 117 118 119 120 -1">
      <Coordinate point="15.0000 0.0000 0 14.9794 0.7850 0 14.9178 1.5679 0 14.8153 2.3465 0 14.6722 3.1187 0 14.4889 3.8823 0 14.2658 4.6353 0 14.0037 5.3755 0 13.7032 6.1010 0 13.3651 6.8099 0 12.9904 7.5000 0 12.5801 8.1696 0 12.1353 8.8168 0 11.6572 9.4398 0 11.1472 10.0370 0 10.6066 10.6066 0 10.0370 11.1472 0 9.4398 11.6572 0 8.8168 12.1353 0 8.1696 12.5801 0 7.5000 12.9904 0 6.8099 13.3651 0 6.1010 13.7032 0 5.3755 14.0037 0 4.6353 14.2658 0 3.8823 14.4889 0 3.1187 14.6722 0 2.3465 14.8153 0 1.5679 14.9178 0 0.7850 14.9794 0 0.0000 15.0000 0 -0.7850 14.9794 0 -1.5679 14.9178 0 -2.3465 14.8153 0 -3.1187 14.6722 0 -3.8823 14.4889 0 -4.6353 14.2658 0 -5.3755 14.0037 0 -6.1010 13.7032 0 -6.8099 13.3651 0 -7.5000 12.9904 0 -8.1696 12.5801 0 -8.8168 12.1353 0 -9.4398 11.6572 0 -10.0370 11.1472 0 -10.6066 10.6066 0 -11.1472 10.0370 0 -11.6572 9.4398 0 -12.1353 8.8168 0 -12.5801 8.1696 0 -12.9904 7.5000 0 -13.3651 6.8099 0 -13.7032 6.1010 0 -14.0037 5.3755 0 -14.2658 4.6353 0 -14.4889 3.8823 0 -14.6722 3.1187 0 -14.8153 2.3465 0 -14.9178 1.5679 0 -14.9794 0.7850 0 -15.0000 0.0000 0 -14.9794 -0.7850 0 -14.9178 -1.5679 0 -14.8153 -2.3465 0 -14.6722 -3.1187 0 -14.4889 -3.8823 0 -14.2658 -4.6353 0 -14.0037 -5.3755 0 -13.7032 -6.1010 0 -13.3651 -6.8099 0 -12.9904 -7.5000 0 -12.5801 -8.1696 0 -12.1353 -8.8168 0 -11.6572 -9.4398 0 -11.1472 -10.0370 0 -10.6066 -10.6066 0 -10.0370 -11.1472 0 -9.4398 -11.6572 0 -8.8168 -12.1353 0 -8.1696 -12.5801 0 -7.5000 -12.9904 0 -6.8099 -13.3651 0 -6.1010 -13.7032 0 -5.3755 -14.0037 0 -4.6353 -14.2658 0 -3.8823 -14.4889 0 -3.1187 -14.6722 0 -2.3465 -14.8153 0 -1.5679 -14.9178 0 -0.7850 -14.9794 0 -0.0000 -15.0000 0 0.7850 -14.9794 0 1.5679 -14.9178 0 2.3465 -14.8153 0 3.1187 -14.6722 0 3.8823 -14.4889 0 4.6353 -14.2658 0 5.3755 -14.0037 0 6.1010 -13.7032 0 6.8099 -13.3651 0 7.5000 -12.9904 0 8.1696 -12.5801 0 8.8168 -12.1353 0 9.4398 -11.6572 0 10.0370 -11.1472 0 10.6066 -10.6066 0 11.1472 -10.0370 0 11.6572 -9.4398 0 12.1353 -8.8168 0 12.5801 -8.1696 0 12.9904 -7.5000 0 13.3651 -6.8099 0 13.7032 -6.1010 0 14.0037 -5.3755 0 14.2658 -4.6353 0 14.4889 -3.8823 0 14.6722 -3.1187 0 14.8153 -2.3465 0 14.9178 -1.5679 0 14.9794 -0.7850 0 15.0000 -0.0000 0"/>
    </IndexedLineSet>
  </Shape>

  <!-- Mars -->
  <Transform translation="15.0000 0.0000 0.0000">
    <Shape>
      <Appearance>
        <Material DEF="MarsMat"
          diffuseColor="0.8000 0.3500 0.2000"
          emissiveColor="0 0 0"
          specularColor="0.15 0.15 0.15"
          shininess="0.25"
          transparency="0"/>
      </Appearance>
      <Sphere radius="0.5300"/>
    </Shape>
  </Transform>

  <Shape>
    <Appearance>
      <Material emissiveColor="0.25 0.25 0.45"/>
    </Appearance>
    <IndexedLineSet coordIndex="0 1 2 3 4 5 6 7 8 9 10 11 12 13 14 15 16 17 18 19 20 21 22 23 24 25 26 27 28 29 30 31 32 33 34 35 36 37 38 39 40 41 42 43 44 45 46 47 48 49 50 51 52 53 54 55 56 57 58 59 60 61 62 63 64 65 66 67 68 69 70 71 72 73 74 75 76 77 78 79 80 81 82 83 84 85 86 87 88 89 90 91 92 93 94 95 96 97 98 99 100 101 102 103 104 105 106 107 108 109 110 111 112 113 114 115 116 117 118 119 120 -1">
      <Coordinate point="22.0000 0.0000 0 21.9698 1.1514 0 21.8795 2.2996 0 21.7291 3.4416 0 21.5192 4.5741 0 21.2504 5.6940 0 20.9232 6.7984 0 20.5388 7.8841 0 20.0980 8.9482 0 19.6021 9.9878 0 19.0526 11.0000 0 18.4508 11.9821 0 17.7984 12.9313 0 17.0972 13.8450 0 16.3492 14.7209 0 15.5563 15.5563 0 14.7209 16.3492 0 13.8450 17.0972 0 12.9313 17.7984 0 11.9821 18.4508 0 11.0000 19.0526 0 9.9878 19.6021 0 8.9482 20.0980 0 7.8841 20.5388 0 6.7984 20.9232 0 5.6940 21.2504 0 4.5741 21.5192 0 3.4416 21.7291 0 2.2996 21.8795 0 1.1514 21.9698 0 0.0000 22.0000 0 -1.1514 21.9698 0 -2.2996 21.8795 0 -3.4416 21.7291 0 -4.5741 21.5192 0 -5.6940 21.2504 0 -6.7984 20.9232 0 -7.8841 20.5388 0 -8.9482 20.0980 0 -9.9878 19.6021 0 -11.0000 19.0526 0 -11.9821 18.4508 0 -12.9313 17.7984 0 -13.8450 17.0972 0 -14.7209 16.3492 0 -15.5563 15.5563 0 -16.3492 14.7209 0 -17.0972 13.8450 0 -17.7984 12.9313 0 -18.4508 11.9821 0 -19.0526 11.0000 0 -19.6021 9.9878 0 -20.0980 8.9482 0 -20.5388 7.8841 0 -20.9232 6.7984 0 -21.2504 5.6940 0 -21.5192 4.5741 0 -21.7291 3.4416 0 -21.8795 2.2996 0 -21.9698 1.1514 0 -22.0000 0.0000 0 -21.9698 -1.1514 0 -21.8795 -2.2996 0 -21.7291 -3.4416 0 -21.5192 -4.5741 0 -21.2504 -5.6940 0 -20.9232 -6.7984 0 -20.5388 -7.8841 0 -20.0980 -8.9482 0 -19.6021 -9.9878 0 -19.0526 -11.0000 0 -18.4508 -11.9821 0 -17.7984 -12.9313 0 -17.0972 -13.8450 0 -16.3492 -14.7209 0 -15.5563 -15.5563 0 -14.7209 -16.3492 0 -13.8450 -17.0972 0 -12.9313 -17.7984 0 -11.9821 -18.4508 0 -11.0000 -19.0526 0 -9.9878 -19.6021 0 -8.9482 -20.0980 0 -7.8841 -20.5388 0 -6.7984 -20.9232 0 -5.6940 -21.2504 0 -4.5741 -21.5192 0 -3.4416 -21.7291 0 -2.2996 -21.8795 0 -1.1514 -21.9698 0 -0.0000 -22.0000 0 1.1514 -21.9698 0 2.2996 -21.8795 0 3.4416 -21.7291 0 4.5741 -21.5192 0 5.6940 -21.2504 0 6.7984 -20.9232 0 7.8841 -20.5388 0 8.9482 -20.0980 0 9.9878 -19.6021 0 11.0000 -19.0526 0 11.9821 -18.4508 0 12.9313 -17.7984 0 13.8450 -17.0972 0 14.7209 -16.3492 0 15.5563 -15.5563 0 16.3492 -14.7209 0 17.0972 -13.8450 0 17.7984 -12.9313 0 18.4508 -11.9821 0 19.0526 -11.0000 0 19.6021 -9.9878 0 20.0980 -8.9482 0 20.5388 -7.8841 0 20.9232 -6.7984 0 21.2504 -5.6940 0 21.5192 -4.5741 0 21.7291 -3.4416 0 21.8795 -2.2996 0 21.9698 -1.1514 0 22.0000 -0.0000 0"/>
    </IndexedLineSet>
  </Shape>

  <!-- Jupiter -->
  <Transform translation="22.0000 0.0000 0.0000">
    <Shape>
      <Appearance>
        <Material DEF="JupiterMat"
          diffuseColor="0.8500 0.7200 0.5500"
          emissiveColor="0 0 0"
          specularColor="0.15 0.15 0.15"
          shininess="0.25"
          transparency="0"/>
      </Appearance>
      <Sphere radius="2.8000"/>
    </Shape>
  </Transform>

  <Shape>
    <Appearance>
      <Material emissiveColor="0.25 0.25 0.45"/>
    </Appearance>
    <IndexedLineSet coordIndex="0 1 2 3 4 5 6 7 8 9 10 11 12 13 14 15 16 17 18 19 20 21 22 23 24 25 26 27 28 29 30 31 32 33 34 35 36 37 38 39 40 41 42 43 44 45 46 47 48 49 50 51 52 53 54 55 56 57 58 59 60 61 62 63 64 65 66 67 68 69 70 71 72 73 74 75 76 77 78 79 80 81 82 83 84 85 86 87 88 89 90 91 92 93 94 95 96 97 98 99 100 101 102 103 104 105 106 107 108 109 110 111 112 113 114 115 116 117 118 119 120 -1">
      <Coordinate point="30.0000 0.0000 0 29.9589 1.5701 0 29.8357 3.1359 0 29.6307 4.6930 0 29.3444 6.2374 0 28.9778 7.7646 0 28.5317 9.2705 0 28.0074 10.7510 0 27.4064 12.2021 0 26.7302 13.6197 0 25.9808 15.0000 0 25.1601 16.3392 0 24.2705 17.6336 0 23.3144 18.8796 0 22.2943 20.0739 0 21.2132 21.2132 0 20.0739 22.2943 0 18.8796 23.3144 0 17.6336 24.2705 0 16.3392 25.1601 0 15.0000 25.9808 0 13.6197 26.7302 0 12.2021 27.4064 0 10.7510 28.0074 0 9.2705 28.5317 0 7.7646 28.9778 0 6.2374 29.3444 0 4.6930 29.6307 0 3.1359 29.8357 0 1.5701 29.9589 0 0.0000 30.0000 0 -1.5701 29.9589 0 -3.1359 29.8357 0 -4.6930 29.6307 0 -6.2374 29.3444 0 -7.7646 28.9778 0 -9.2705 28.5317 0 -10.7510 28.0074 0 -12.2021 27.4064 0 -13.6197 26.7302 0 -15.0000 25.9808 0 -16.3392 25.1601 0 -17.6336 24.2705 0 -18.8796 23.3144 0 -20.0739 22.2943 0 -21.2132 21.2132 0 -22.2943 20.0739 0 -23.3144 18.8796 0 -24.2705 17.6336 0 -25.1601 16.3392 0 -25.9808 15.0000 0 -26.7302 13.6197 0 -27.4064 12.2021 0 -28.0074 10.7510 0 -28.5317 9.2705 0 -28.9778 7.7646 0 -29.3444 6.2374 0 -29.6307 4.6930 0 -29.8357 3.1359 0 -29.9589 1.5701 0 -30.0000 0.0000 0 -29.9589 -1.5701 0 -29.8357 -3.1359 0 -29.6307 -4.6930 0 -29.3444 -6.2374 0 -28.9778 -7.7646 0 -28.5317 -9.2705 0 -28.0074 -10.7510 0 -27.4064 -12.2021 0 -26.7302 -13.6197 0 -25.9808 -15.0000 0 -25.1601 -16.3392 0 -24.2705 -17.6336 0 -23.3144 -18.8796 0 -22.2943 -20.0739 0 -21.2132 -21.2132 0 -20.0739 -22.2943 0 -18.8796 -23.3144 0 -17.6336 -24.2705 0 -16.3392 -25.1601 0 -15.0000 -25.9808 0 -13.6197 -26.7302 0 -12.2021 -27.4064 0 -10.7510 -28.0074 0 -9.2705 -28.5317 0 -7.7646 -28.9778 0 -6.2374 -29.3444 0 -4.6930 -29.6307 0 -3.1359 -29.8357 0 -1.5701 -29.9589 0 -0.0000 -30.0000 0 1.5701 -29.9589 0 3.1359 -29.8357 0 4.6930 -29.6307 0 6.2374 -29.3444 0 7.7646 -28.9778 0 9.2705 -28.5317 0 10.7510 -28.0074 0 12.2021 -27.4064 0 13.6197 -26.7302 0 15.0000 -25.9808 0 16.3392 -25.1601 0 17.6336 -24.2705 0 18.8796 -23.3144 0 20.0739 -22.2943 0 21.2132 -21.2132 0 22.2943 -20.0739 0 23.3144 -18.8796 0 24.2705 -17.6336 0 25.1601 -16.3392 0 25.9808 -15.0000 0 26.7302 -13.6197 0 27.4064 -12.2021 0 28.0074 -10.7510 0 28.5317 -9.2705 0 28.9778 -7.7646 0 29.3444 -6.2374 0 29.6307 -4.6930 0 29.8357 -3.1359 0 29.9589 -1.5701 0 30.0000 -0.0000 0"/>
    </IndexedLineSet>
  </Shape>

  <!-- Saturn -->
  <Transform translation="30.0000 0.0000 0.0000">
    <Shape>
      <Appearance>
        <Material DEF="SaturnMat"
          diffuseColor="0.9000 0.8200 0.6000"
          emissiveColor="0 0 0"
          specularColor="0.15 0.15 0.15"
          shininess="0.25"
          transparency="0"/>
      </Appearance>
      <Sphere radius="2.4000"/>
    </Shape>
  </Transform>

  <!-- Saturn Rings -->
  <Transform translation="30.0000 0.0000 0.0000">
    <Shape>
      <Appearance>
        <Material diffuseColor="0.8500 0.8000 0.6500"
          emissiveColor="0.05 0.05 0.03"
          shininess="0.1"
          transparency="0.2500"/>
      </Appearance>
      <IndexedFaceSet solid="false" coordIndex="0 1 81 80 -1 1 2 82 81 -1 2 3 83 82 -1 3 4 84 83 -1 4 5 85 84 -1 5 6 86 85 -1 6 7 87 86 -1 7 8 88 87 -1 8 9 89 88 -1 9 10 90 89 -1 10 11 91 90 -1 11 12 92 91 -1 12 13 93 92 -1 13 14 94 93 -1 14 15 95 94 -1 15 16 96 95 -1 16 17 97 96 -1 17 18 98 97 -1 18 19 99 98 -1 19 20 100 99 -1 20 21 101 100 -1 21 22 102 101 -1 22 23 103 102 -1 23 24 104 103 -1 24 25 105 104 -1 25 26 106 105 -1 26 27 107 106 -1 27 28 108 107 -1 28 29 109 108 -1 29 30 110 109 -1 30 31 111 110 -1 31 32 112 111 -1 32 33 113 112 -1 33 34 114 113 -1 34 35 115 114 -1 35 36 116 115 -1 36 37 117 116 -1 37 38 118 117 -1 38 39 119 118 -1 39 40 120 119 -1 40 41 121 120 -1 41 42 122 121 -1 42 43 123 122 -1 43 44 124 123 -1 44 45 125 124 -1 45 46 126 125 -1 46 47 127 126 -1 47 48 128 127 -1 48 49 129 128 -1 49 50 130 129 -1 50 51 131 130 -1 51 52 132 131 -1 52 53 133 132 -1 53 54 134 133 -1 54 55 135 134 -1 55 56 136 135 -1 56 57 137 136 -1 57 58 138 137 -1 58 59 139 138 -1 59 60 140 139 -1 60 61 141 140 -1 61 62 142 141 -1 62 63 143 142 -1 63 64 144 143 -1 64 65 145 144 -1 65 66 146 145 -1 66 67 147 146 -1 67 68 148 147 -1 68 69 149 148 -1 69 70 150 149 -1 70 71 151 150 -1 71 72 152 151 -1 72 73 153 152 -1 73 74 154 153 -1 74 75 155 154 -1 75 76 156 155 -1 76 77 157 156 -1 77 78 158 157 -1 78 79 159 158 -1 79 0 80 159 -1">
        <Coordinate point="3.2000 0.0000 0.0000 3.1901 0.2511 0.0000 3.1606 0.5006 0.0000 3.1116 0.7470 0.0000 3.0434 0.9889 0.0000 2.9564 1.2246 0.0000 2.8512 1.4528 0.0000 2.7284 1.6720 0.0000 2.5889 1.8809 0.0000 2.4333 2.0782 0.0000 2.2627 2.2627 0.0000 2.0782 2.4333 0.0000 1.8809 2.5889 0.0000 1.6720 2.7284 0.0000 1.4528 2.8512 0.0000 1.2246 2.9564 0.0000 0.9889 3.0434 0.0000 0.7470 3.1116 0.0000 0.5006 3.1606 0.0000 0.2511 3.1901 0.0000 0.0000 3.2000 0.0000 -0.2511 3.1901 0.0000 -0.5006 3.1606 0.0000 -0.7470 3.1116 0.0000 -0.9889 3.0434 0.0000 -1.2246 2.9564 0.0000 -1.4528 2.8512 0.0000 -1.6720 2.7284 0.0000 -1.8809 2.5889 0.0000 -2.0782 2.4333 0.0000 -2.2627 2.2627 0.0000 -2.4333 2.0782 0.0000 -2.5889 1.8809 0.0000 -2.7284 1.6720 0.0000 -2.8512 1.4528 0.0000 -2.9564 1.2246 0.0000 -3.0434 0.9889 0.0000 -3.1116 0.7470 0.0000 -3.1606 0.5006 0.0000 -3.1901 0.2511 0.0000 -3.2000 0.0000 0.0000 -3.1901 -0.2511 0.0000 -3.1606 -0.5006 0.0000 -3.1116 -0.7470 0.0000 -3.0434 -0.9889 0.0000 -2.9564 -1.2246 0.0000 -2.8512 -1.4528 0.0000 -2.7284 -1.6720 0.0000 -2.5889 -1.8809 0.0000 -2.4333 -2.0782 0.0000 -2.2627 -2.2627 0.0000 -2.0782 -2.4333 0.0000 -1.8809 -2.5889 0.0000 -1.6720 -2.7284 0.0000 -1.4528 -2.8512 0.0000 -1.2246 -2.9564 0.0000 -0.9889 -3.0434 0.0000 -0.7470 -3.1116 0.0000 -0.5006 -3.1606 0.0000 -0.2511 -3.1901 0.0000 -0.0000 -3.2000 0.0000 0.2511 -3.1901 0.0000 0.5006 -3.1606 0.0000 0.7470 -3.1116 0.0000 0.9889 -3.0434 0.0000 1.2246 -2.9564 0.0000 1.4528 -2.8512 0.0000 1.6720 -2.7284 0.0000 1.8809 -2.5889 0.0000 2.0782 -2.4333 0.0000 2.2627 -2.2627 0.0000 2.4333 -2.0782 0.0000 2.5889 -1.8809 0.0000 2.7284 -1.6720 0.0000 2.8512 -1.4528 0.0000 2.9564 -1.2246 0.0000 3.0434 -0.9889 0.0000 3.1116 -0.7470 0.0000 3.1606 -0.5006 0.0000 3.1901 -0.2511 0.0000 5.5000 0.0000 0.0000 5.4830 0.4315 0.0000 5.4323 0.8604 0.0000 5.3480 1.2839 0.0000 5.2308 1.6996 0.0000 5.0813 2.1048 0.0000 4.9005 2.4969 0.0000 4.6895 2.8737 0.0000 4.4496 3.2328 0.0000 4.1822 3.5720 0.0000 3.8891 3.8891 0.0000 3.5720 4.1822 0.0000 3.2328 4.4496 0.0000 2.8737 4.6895 0.0000 2.4969 4.9005 0.0000 2.1048 5.0813 0.0000 1.6996 5.2308 0.0000 1.2839 5.3480 0.0000 0.8604 5.4323 0.0000 0.4315 5.4830 0.0000 0.0000 5.5000 0.0000 -0.4315 5.4830 0.0000 -0.8604 5.4323 0.0000 -1.2839 5.3480 0.0000 -1.6996 5.2308 0.0000 -2.1048 5.0813 0.0000 -2.4969 4.9005 0.0000 -2.8737 4.6895 0.0000 -3.2328 4.4496 0.0000 -3.5720 4.1822 0.0000 -3.8891 3.8891 0.0000 -4.1822 3.5720 0.0000 -4.4496 3.2328 0.0000 -4.6895 2.8737 0.0000 -4.9005 2.4969 0.0000 -5.0813 2.1048 0.0000 -5.2308 1.6996 0.0000 -5.3480 1.2839 0.0000 -5.4323 0.8604 0.0000 -5.4830 0.4315 0.0000 -5.5000 0.0000 0.0000 -5.4830 -0.4315 0.0000 -5.4323 -0.8604 0.0000 -5.3480 -1.2839 0.0000 -5.2308 -1.6996 0.0000 -5.0813 -2.1048 0.0000 -4.9005 -2.4969 0.0000 -4.6895 -2.8737 0.0000 -4.4496 -3.2328 0.0000 -4.1822 -3.5720 0.0000 -3.8891 -3.8891 0.0000 -3.5720 -4.1822 0.0000 -3.2328 -4.4496 0.0000 -2.8737 -4.6895 0.0000 -2.4969 -4.9005 0.0000 -2.1048 -5.0813 0.0000 -1.6996 -5.2308 0.0000 -1.2839 -5.3480 0.0000 -0.8604 -5.4323 0.0000 -0.4315 -5.4830 0.0000 -0.0000 -5.5000 0.0000 0.4315 -5.4830 0.0000 0.8604 -5.4323 0.0000 1.2839 -5.3480 0.0000 1.6996 -5.2308 0.0000 2.1048 -5.0813 0.0000 2.4969 -4.9005 0.0000 2.8737 -4.6895 0.0000 3.2328 -4.4496 0.0000 3.5720 -4.1822 0.0000 3.8891 -3.8891 0.0000 4.1822 -3.5720 0.0000 4.4496 -3.2328 0.0000 4.6895 -2.8737 0.0000 4.9005 -2.4969 0.0000 5.0813 -2.1048 0.0000 5.2308 -1.6996 0.0000 5.3480 -1.2839 0.0000 5.4323 -0.8604 0.0000 5.4830 -0.4315 0.0000"/>
      </IndexedFaceSet>
    </Shape>
  </Transform>

  <Shape>
    <Appearance>
      <Material emissiveColor="0.25 0.25 0.45"/>
    </Appearance>
    <IndexedLineSet coordIndex="0 1 2 3 4 5 6 7 8 9 10 11 12 13 14 15 16 17 18 19 20 21 22 23 24 25 26 27 28 29 30 31 32 33 34 35 36 37 38 39 40 41 42 43 44 45 46 47 48 49 50 51 52 53 54 55 56 57 58 59 60 61 62 63 64 65 66 67 68 69 70 71 72 73 74 75 76 77 78 79 80 81 82 83 84 85 86 87 88 89 90 91 92 93 94 95 96 97 98 99 100 101 102 103 104 105 106 107 108 109 110 111 112 113 114 115 116 117 118 119 120 -1">
      <Coordinate point="38.0000 0.0000 0 37.9479 1.9888 0 37.7918 3.9721 0 37.5322 5.9445 0 37.1696 7.9006 0 36.7052 9.8351 0 36.1401 11.7426 0 35.4761 13.6180 0 34.7147 15.4560 0 33.8582 17.2516 0 32.9090 19.0000 0 31.8695 20.6963 0 30.7426 22.3358 0 29.5315 23.9142 0 28.2395 25.4270 0 26.8701 26.8701 0 25.4270 28.2395 0 23.9142 29.5315 0 22.3358 30.7426 0 20.6963 31.8695 0 19.0000 32.9090 0 17.2516 33.8582 0 15.4560 34.7147 0 13.6180 35.4761 0 11.7426 36.1401 0 9.8351 36.7052 0 7.9006 37.1696 0 5.9445 37.5322 0 3.9721 37.7918 0 1.9888 37.9479 0 0.0000 38.0000 0 -1.9888 37.9479 0 -3.9721 37.7918 0 -5.9445 37.5322 0 -7.9006 37.1696 0 -9.8351 36.7052 0 -11.7426 36.1401 0 -13.6180 35.4761 0 -15.4560 34.7147 0 -17.2516 33.8582 0 -19.0000 32.9090 0 -20.6963 31.8695 0 -22.3358 30.7426 0 -23.9142 29.5315 0 -25.4270 28.2395 0 -26.8701 26.8701 0 -28.2395 25.4270 0 -29.5315 23.9142 0 -30.7426 22.3358 0 -31.8695 20.6963 0 -32.9090 19.0000 0 -33.8582 17.2516 0 -34.7147 15.4560 0 -35.4761 13.6180 0 -36.1401 11.7426 0 -36.7052 9.8351 0 -37.1696 7.9006 0 -37.5322 5.9445 0 -37.7918 3.9721 0 -37.9479 1.9888 0 -38.0000 0.0000 0 -37.9479 -1.9888 0 -37.7918 -3.9721 0 -37.5322 -5.9445 0 -37.1696 -7.9006 0 -36.7052 -9.8351 0 -36.1401 -11.7426 0 -35.4761 -13.6180 0 -34.7147 -15.4560 0 -33.8582 -17.2516 0 -32.9090 -19.0000 0 -31.8695 -20.6963 0 -30.7426 -22.3358 0 -29.5315 -23.9142 0 -28.2395 -25.4270 0 -26.8701 -26.8701 0 -25.4270 -28.2395 0 -23.9142 -29.5315 0 -22.3358 -30.7426 0 -20.6963 -31.8695 0 -19.0000 -32.9090 0 -17.2516 -33.8582 0 -15.4560 -34.7147 0 -13.6180 -35.4761 0 -11.7426 -36.1401 0 -9.8351 -36.7052 0 -7.9006 -37.1696 0 -5.9445 -37.5322 0 -3.9721 -37.7918 0 -1.9888 -37.9479 0 -0.0000 -38.0000 0 1.9888 -37.9479 0 3.9721 -37.7918 0 5.9445 -37.5322 0 7.9006 -37.1696 0 9.8351 -36.7052 0 11.7426 -36.1401 0 13.6180 -35.4761 0 15.4560 -34.7147 0 17.2516 -33.8582 0 19.0000 -32.9090 0 20.6963 -31.8695 0 22.3358 -30.7426 0 23.9142 -29.5315 0 25.4270 -28.2395 0 26.8701 -26.8701 0 28.2395 -25.4270 0 29.5315 -23.9142 0 30.7426 -22.3358 0 31.8695 -20.6963 0 32.9090 -19.0000 0 33.8582 -17.2516 0 34.7147 -15.4560 0 35.4761 -13.6180 0 36.1401 -11.7426 0 36.7052 -9.8351 0 37.1696 -7.9006 0 37.5322 -5.9445 0 37.7918 -3.9721 0 37.9479 -1.9888 0 38.0000 -0.0000 0"/>
    </IndexedLineSet>
  </Shape>

  <!-- Uranus -->
  <Transform translation="38.0000 0.0000 0.0000">
    <Shape>
      <Appearance>
        <Material DEF="UranusMat"
          diffuseColor="0.5500 0.8500 0.9000"
          emissiveColor="0 0 0"
          specularColor="0.15 0.15 0.15"
          shininess="0.25"
          transparency="0"/>
      </Appearance>
      <Sphere radius="1.6000"/>
    </Shape>
  </Transform>

  <!-- Uranus Rings -->
  <Transform translation="38.0000 0.0000 0.0000">
    <Shape>
      <Appearance>
        <Material diffuseColor="0.7000 0.9000 0.9200"
          emissiveColor="0.05 0.05 0.03"
          shininess="0.1"
          transparency="0.5000"/>
      </Appearance>
      <IndexedFaceSet solid="false" coordIndex="0 1 81 80 -1 1 2 82 81 -1 2 3 83 82 -1 3 4 84 83 -1 4 5 85 84 -1 5 6 86 85 -1 6 7 87 86 -1 7 8 88 87 -1 8 9 89 88 -1 9 10 90 89 -1 10 11 91 90 -1 11 12 92 91 -1 12 13 93 92 -1 13 14 94 93 -1 14 15 95 94 -1 15 16 96 95 -1 16 17 97 96 -1 17 18 98 97 -1 18 19 99 98 -1 19 20 100 99 -1 20 21 101 100 -1 21 22 102 101 -1 22 23 103 102 -1 23 24 104 103 -1 24 25 105 104 -1 25 26 106 105 -1 26 27 107 106 -1 27 28 108 107 -1 28 29 109 108 -1 29 30 110 109 -1 30 31 111 110 -1 31 32 112 111 -1 32 33 113 112 -1 33 34 114 113 -1 34 35 115 114 -1 35 36 116 115 -1 36 37 117 116 -1 37 38 118 117 -1 38 39 119 118 -1 39 40 120 119 -1 40 41 121 120 -1 41 42 122 121 -1 42 43 123 122 -1 43 44 124 123 -1 44 45 125 124 -1 45 46 126 125 -1 46 47 127 126 -1 47 48 128 127 -1 48 49 129 128 -1 49 50 130 129 -1 50 51 131 130 -1 51 52 132 131 -1 52 53 133 132 -1 53 54 134 133 -1 54 55 135 134 -1 55 56 136 135 -1 56 57 137 136 -1 57 58 138 137 -1 58 59 139 138 -1 59 60 140 139 -1 60 61 141 140 -1 61 62 142 141 -1 62 63 143 142 -1 63 64 144 143 -1 64 65 145 144 -1 65 66 146 145 -1 66 67 147 146 -1 67 68 148 147 -1 68 69 149 148 -1 69 70 150 149 -1 70 71 151 150 -1 71 72 152 151 -1 72 73 153 152 -1 73 74 154 153 -1 74 75 155 154 -1 75 76 156 155 -1 76 77 157 156 -1 77 78 158 157 -1 78 79 159 158 -1 79 0 80 159 -1">
        <Coordinate point="2.0000 0.0000 0.0000 1.9938 0.1569 0.0000 1.9754 0.3129 0.0000 1.9447 0.4669 0.0000 1.9021 0.6180 0.0000 1.8478 0.7654 0.0000 1.7820 0.9080 0.0000 1.7053 1.0450 0.0000 1.6180 1.1756 0.0000 1.5208 1.2989 0.0000 1.4142 1.4142 0.0000 1.2989 1.5208 0.0000 1.1756 1.6180 0.0000 1.0450 1.7053 0.0000 0.9080 1.7820 0.0000 0.7654 1.8478 0.0000 0.6180 1.9021 0.0000 0.4669 1.9447 0.0000 0.3129 1.9754 0.0000 0.1569 1.9938 0.0000 0.0000 2.0000 0.0000 -0.1569 1.9938 0.0000 -0.3129 1.9754 0.0000 -0.4669 1.9447 0.0000 -0.6180 1.9021 0.0000 -0.7654 1.8478 0.0000 -0.9080 1.7820 0.0000 -1.0450 1.7053 0.0000 -1.1756 1.6180 0.0000 -1.2989 1.5208 0.0000 -1.4142 1.4142 0.0000 -1.5208 1.2989 0.0000 -1.6180 1.1756 0.0000 -1.7053 1.0450 0.0000 -1.7820 0.9080 0.0000 -1.8478 0.7654 0.0000 -1.9021 0.6180 0.0000 -1.9447 0.4669 0.0000 -1.9754 0.3129 0.0000 -1.9938 0.1569 0.0000 -2.0000 0.0000 0.0000 -1.9938 -0.1569 0.0000 -1.9754 -0.3129 0.0000 -1.9447 -0.4669 0.0000 -1.9021 -0.6180 0.0000 -1.8478 -0.7654 0.0000 -1.7820 -0.9080 0.0000 -1.7053 -1.0450 0.0000 -1.6180 -1.1756 0.0000 -1.5208 -1.2989 0.0000 -1.4142 -1.4142 0.0000 -1.2989 -1.5208 0.0000 -1.1756 -1.6180 0.0000 -1.0450 -1.7053 0.0000 -0.9080 -1.7820 0.0000 -0.7654 -1.8478 0.0000 -0.6180 -1.9021 0.0000 -0.4669 -1.9447 0.0000 -0.3129 -1.9754 0.0000 -0.1569 -1.9938 0.0000 -0.0000 -2.0000 0.0000 0.1569 -1.9938 0.0000 0.3129 -1.9754 0.0000 0.4669 -1.9447 0.0000 0.6180 -1.9021 0.0000 0.7654 -1.8478 0.0000 0.9080 -1.7820 0.0000 1.0450 -1.7053 0.0000 1.1756 -1.6180 0.0000 1.2989 -1.5208 0.0000 1.4142 -1.4142 0.0000 1.5208 -1.2989 0.0000 1.6180 -1.1756 0.0000 1.7053 -1.0450 0.0000 1.7820 -0.9080 0.0000 1.8478 -0.7654 0.0000 1.9021 -0.6180 0.0000 1.9447 -0.4669 0.0000 1.9754 -0.3129 0.0000 1.9938 -0.1569 0.0000 2.8000 0.0000 0.0000 2.7914 0.2197 0.0000 2.7655 0.4380 0.0000 2.7226 0.6536 0.0000 2.6630 0.8652 0.0000 2.5869 1.0715 0.0000 2.4948 1.2712 0.0000 2.3874 1.4630 0.0000 2.2652 1.6458 0.0000 2.1291 1.8185 0.0000 1.9799 1.9799 0.0000 1.8185 2.1291 0.0000 1.6458 2.2652 0.0000 1.4630 2.3874 0.0000 1.2712 2.4948 0.0000 1.0715 2.5869 0.0000 0.8652 2.6630 0.0000 0.6536 2.7226 0.0000 0.4380 2.7655 0.0000 0.2197 2.7914 0.0000 0.0000 2.8000 0.0000 -0.2197 2.7914 0.0000 -0.4380 2.7655 0.0000 -0.6536 2.7226 0.0000 -0.8652 2.6630 0.0000 -1.0715 2.5869 0.0000 -1.2712 2.4948 0.0000 -1.4630 2.3874 0.0000 -1.6458 2.2652 0.0000 -1.8185 2.1291 0.0000 -1.9799 1.9799 0.0000 -2.1291 1.8185 0.0000 -2.2652 1.6458 0.0000 -2.3874 1.4630 0.0000 -2.4948 1.2712 0.0000 -2.5869 1.0715 0.0000 -2.6630 0.8652 0.0000 -2.7226 0.6536 0.0000 -2.7655 0.4380 0.0000 -2.7914 0.2197 0.0000 -2.8000 0.0000 0.0000 -2.7914 -0.2197 0.0000 -2.7655 -0.4380 0.0000 -2.7226 -0.6536 0.0000 -2.6630 -0.8652 0.0000 -2.5869 -1.0715 0.0000 -2.4948 -1.2712 0.0000 -2.3874 -1.4630 0.0000 -2.2652 -1.6458 0.0000 -2.1291 -1.8185 0.0000 -1.9799 -1.9799 0.0000 -1.8185 -2.1291 0.0000 -1.6458 -2.2652 0.0000 -1.4630 -2.3874 0.0000 -1.2712 -2.4948 0.0000 -1.0715 -2.5869 0.0000 -0.8652 -2.6630 0.0000 -0.6536 -2.7226 0.0000 -0.4380 -2.7655 0.0000 -0.2197 -2.7914 0.0000 -0.0000 -2.8000 0.0000 0.2197 -2.7914 0.0000 0.4380 -2.7655 0.0000 0.6536 -2.7226 0.0000 0.8652 -2.6630 0.0000 1.0715 -2.5869 0.0000 1.2712 -2.4948 0.0000 1.4630 -2.3874 0.0000 1.6458 -2.2652 0.0000 1.8185 -2.1291 0.0000 1.9799 -1.9799 0.0000 2.1291 -1.8185 0.0000 2.2652 -1.6458 0.0000 2.3874 -1.4630 0.0000 2.4948 -1.2712 0.0000 2.5869 -1.0715 0.0000 2.6630 -0.8652 0.0000 2.7226 -0.6536 0.0000 2.7655 -0.4380 0.0000 2.7914 -0.2197 0.0000"/>
      </IndexedFaceSet>
    </Shape>
  </Transform>

  <Shape>
    <Appearance>
      <Material emissiveColor="0.25 0.25 0.45"/>
    </Appearance>
    <IndexedLineSet coordIndex="0 1 2 3 4 5 6 7 8 9 10 11 12 13 14 15 16 17 18 19 20 21 22 23 24 25 26 27 28 29 30 31 32 33 34 35 36 37 38 39 40 41 42 43 44 45 46 47 48 49 50 51 52 53 54 55 56 57 58 59 60 61 62 63 64 65 66 67 68 69 70 71 72 73 74 75 76 77 78 79 80 81 82 83 84 85 86 87 88 89 90 91 92 93 94 95 96 97 98 99 100 101 102 103 104 105 106 107 108 109 110 111 112 113 114 115 116 117 118 119 120 -1">
      <Coordinate point="45.0000 0.0000 0 44.9383 2.3551 0 44.7535 4.7038 0 44.4460 7.0396 0 44.0166 9.3560 0 43.4667 11.6469 0 42.7975 13.9058 0 42.0111 16.1266 0 41.1095 18.3031 0 40.0953 20.4296 0 38.9711 22.5000 0 37.7402 24.5088 0 36.4058 26.4503 0 34.9716 28.3194 0 33.4415 30.1109 0 31.8198 31.8198 0 30.1109 33.4415 0 28.3194 34.9716 0 26.4503 36.4058 0 24.5088 37.7402 0 22.5000 38.9711 0 20.4296 40.0953 0 18.3031 41.1095 0 16.1266 42.0111 0 13.9058 42.7975 0 11.6469 43.4667 0 9.3560 44.0166 0 7.0396 44.4460 0 4.7038 44.7535 0 2.3551 44.9383 0 0.0000 45.0000 0 -2.3551 44.9383 0 -4.7038 44.7535 0 -7.0396 44.4460 0 -9.3560 44.0166 0 -11.6469 43.4667 0 -13.9058 42.7975 0 -16.1266 42.0111 0 -18.3031 41.1095 0 -20.4296 40.0953 0 -22.5000 38.9711 0 -24.5088 37.7402 0 -26.4503 36.4058 0 -28.3194 34.9716 0 -30.1109 33.4415 0 -31.8198 31.8198 0 -33.4415 30.1109 0 -34.9716 28.3194 0 -36.4058 26.4503 0 -37.7402 24.5088 0 -38.9711 22.5000 0 -40.0953 20.4296 0 -41.1095 18.3031 0 -42.0111 16.1266 0 -42.7975 13.9058 0 -43.4667 11.6469 0 -44.0166 9.3560 0 -44.4460 7.0396 0 -44.7535 4.7038 0 -44.9383 2.3551 0 -45.0000 0.0000 0 -44.9383 -2.3551 0 -44.7535 -4.7038 0 -44.4460 -7.0396 0 -44.0166 -9.3560 0 -43.4667 -11.6469 0 -42.7975 -13.9058 0 -42.0111 -16.1266 0 -41.1095 -18.3031 0 -40.0953 -20.4296 0 -38.9711 -22.5000 0 -37.7402 -24.5088 0 -36.4058 -26.4503 0 -34.9716 -28.3194 0 -33.4415 -30.1109 0 -31.8198 -31.8198 0 -30.1109 -33.4415 0 -28.3194 -34.9716 0 -26.4503 -36.4058 0 -24.5088 -37.7402 0 -22.5000 -38.9711 0 -20.4296 -40.0953 0 -18.3031 -41.1095 0 -16.1266 -42.0111 0 -13.9058 -42.7975 0 -11.6469 -43.4667 0 -9.3560 -44.0166 0 -7.0396 -44.4460 0 -4.7038 -44.7535 0 -2.3551 -44.9383 0 -0.0000 -45.0000 0 2.3551 -44.9383 0 4.7038 -44.7535 0 7.0396 -44.4460 0 9.3560 -44.0166 0 11.6469 -43.4667 0 13.9058 -42.7975 0 16.1266 -42.0111 0 18.3031 -41.1095 0 20.4296 -40.0953 0 22.5000 -38.9711 0 24.5088 -37.7402 0 26.4503 -36.4058 0 28.3194 -34.9716 0 30.1109 -33.4415 0 31.8198 -31.8198 0 33.4415 -30.1109 0 34.9716 -28.3194 0 36.4058 -26.4503 0 37.7402 -24.5088 0 38.9711 -22.5000 0 40.0953 -20.4296 0 41.1095 -18.3031 0 42.0111 -16.1266 0 42.7975 -13.9058 0 43.4667 -11.6469 0 44.0166 -9.3560 0 44.4460 -7.0396 0 44.7535 -4.7038 0 44.9383 -2.3551 0 45.0000 -0.0000 0"/>
    </IndexedLineSet>
  </Shape>

  <!-- Neptune -->
  <Transform translation="45.0000 0.0000 0.0000">
    <Shape>
      <Appearance>
        <Material DEF="NeptuneMat"
          diffuseColor="0.2500 0.4000 0.9000"
          emissiveColor="0 0 0"
          specularColor="0.15 0.15 0.15"
          shininess="0.25"
          transparency="0"/>
      </Appearance>
      <Sphere radius="1.5500"/>
    </Shape>
  </Transform>
  </Scene>
</X3D>